<svg xmlns="http://www.w3.org/2000/svg" viewBox="0 0 352.78 358.81"><defs><style>.cls-1{fill:#45bac0;stroke:#45bac0;stroke-miterlimit:10;stroke-width:20px}</style></defs><g id="Layer_2" data-name="Layer 2"><g id="Layer_2-2" data-name="Layer 2"><path class="cls-1" d="M177.11 234.85s-43.77-5.27-44.79 31.75v71.23s2.3 11-17.87 11H74.11s-26-.76-26-29.36v-106s0-12.76-15.07-12.76c-2.81 0-22.72-1.28-22.72-18.9 0-4.85-2.94-8.29 10.21-21.44L161.68 19.2s8.44-9.45 15.71-9.19"/><path class="cls-1" d="M175.67 234.85s43.77-5.27 44.79 31.75v71.23s-2.3 11 17.87 11h40.34s26-.76 26-29.36v-106s0-12.76 15.07-12.76c2.81 0 22.72-1.28 22.72-18.9 0-4.85 2.94-8.29-10.21-21.44L191.1 19.2s-8.44-9.45-15.71-9.2"/></g></g></svg>