<svg xmlns="http://www.w3.org/2000/svg" viewBox="0 0 403.98 386.54">
  <defs>
    <style>
      .cls-1 {
        fill: none;
        stroke: #45bac0;
        stroke-miterlimit: 10;
        stroke-width: 20px;
      }
    </style>
  </defs>
  <g id="Layer_2" data-name="Layer 2">
    <g id="Layer_1-2" data-name="Layer 1">
      <g id="Layer_2-2" data-name="Layer 2">
        <g id="Layer_1-2-2" data-name="Layer 1-2">
          <path class="cls-1" d="M213.8,17.36,263,116.88a13.22,13.22,0,0,0,9.94,7.22l109.82,16A13.19,13.19,0,0,1,390,162.52L310.57,240a13.2,13.2,0,0,0-3.8,11.72l18.76,109.41A13.19,13.19,0,0,1,306.38,375L208.1,323.36a13.18,13.18,0,0,0-12.27,0L97.6,375a13.21,13.21,0,0,1-19.16-13.91L97.21,251.68A13.22,13.22,0,0,0,93.41,240L13.94,162.57a13.21,13.21,0,0,1,7.31-22.47l109.83-16a13.22,13.22,0,0,0,9.93-7.22l49.12-99.52a13.2,13.2,0,0,1,23.67,0Z"/>
        </g>
      </g>
    </g>
  </g>
</svg>
