<svg xmlns="http://www.w3.org/2000/svg" viewBox="0 0 403.98 386.54"><g data-name="Layer 2"><g data-name="Layer 1"><g data-name="Layer 2"><path d="M213.8 17.36l49.2 99.52a13.22 13.22 0 009.94 7.22l109.82 16a13.19 13.19 0 017.24 22.42L310.57 240a13.2 13.2 0 00-3.8 11.72l18.76 109.41A13.19 13.19 0 01306.38 375l-98.28-51.64a13.18 13.18 0 00-12.27 0L97.6 375a13.21 13.21 0 01-19.16-13.91l18.77-109.41a13.22 13.22 0 00-3.8-11.68l-79.47-77.43a13.21 13.21 0 017.31-22.47l109.83-16a13.22 13.22 0 009.93-7.22l49.12-99.52a13.2 13.2 0 0123.67 0z" fill="#45bac0" stroke="#45bac0" stroke-miterlimit="10" stroke-width="20" data-name="Layer 1-2"/></g></g></g></svg>