<svg id="Layer_1" data-name="Layer 1" xmlns="http://www.w3.org/2000/svg" viewBox="0 0 479.7 479.71"><defs><style>.cls-1{fill:#45bac0;}.cls-2{fill:#fff;}</style></defs><g id="Group_20" data-name="Group 20"><g id="Ellipse_57" data-name="Ellipse 57"><circle class="cls-1" cx="239.85" cy="239.85" r="239.85"/><path class="cls-1" d="M250.15,489.78C117.9,489.78,10.3,382.17,10.3,249.92S117.9,10.07,250.15,10.07,490,117.66,490,249.92,382.4,489.78,250.15,489.78Zm0-469.29c-126.5,0-229.42,102.92-229.42,229.43S123.65,479.35,250.15,479.35,479.57,376.43,479.57,249.92,376.65,20.49,250.15,20.49Z" transform="translate(-10.3 -10.07)"/></g><path class="cls-2" d="M254.14,407.91a26.07,26.07,0,0,1-26.07-26.07V126a26.08,26.08,0,0,1,52.15,0V381.84A26.08,26.08,0,0,1,254.14,407.91Z" transform="translate(-10.3 -10.07)"/><path class="cls-2" d="M382.07,280H126.23a26.07,26.07,0,1,1,0-52.14H382.07a26.07,26.07,0,0,1,0,52.14Z" transform="translate(-10.3 -10.07)"/></g></svg>